<?xml version="1.0" standalone="no"?>
<!DOCTYPE svg PUBLIC "-//W3C//DTD SVG 20010904//EN"
 "http://www.w3.org/TR/2001/REC-SVG-20010904/DTD/svg10.dtd">
<svg version="1.0" xmlns="http://www.w3.org/2000/svg"
 width="200.000000pt" height="200.000000pt" viewBox="0 0 200.000000 200.000000"
 preserveAspectRatio="xMidYMid meet">

<g transform="translate(0.000000,200.000000) scale(0.100000,-0.100000)"
fill="#000000" stroke="none">
<path d="M600 1700 c-300 -37 -556 -69 -568 -71 l-24 -4 0 -170 0 -170 38 -15
37 -16 -2 -71 c-3 -99 13 -134 74 -158 l48 -18 -74 -29 c-41 -16 -82 -36 -91
-45 -53 -47 -45 -343 10 -377 18 -11 1226 -326 1249 -326 24 0 663 328 692
356 17 15 2 39 -30 49 -17 6 -19 17 -19 139 0 106 3 136 15 146 27 22 0 46
-72 64 -37 9 -85 21 -105 27 l-38 10 0 100 c0 116 -6 109 125 133 97 18 120
39 130 120 13 101 -13 185 -62 204 -72 28 -715 192 -749 191 -21 -1 -284 -32
-584 -69z m955 -39 c197 -53 322 -90 310 -94 -11 -3 -286 -50 -611 -103 l-592
-98 -311 119 c-171 65 -309 120 -307 122 6 6 1090 140 1141 142 22 0 188 -39
370 -88z m-1210 -196 c165 -63 305 -122 312 -131 20 -27 26 -118 13 -193 -6
-39 -15 -71 -20 -71 -9 0 -588 251 -607 263 -14 9 -19 247 -5 247 4 0 142 -52
307 -115z m1615 65 c26 -49 21 -182 -8 -228 -7 -11 -1227 -262 -1274 -262 -15
0 -16 3 -3 33 20 49 28 164 15 221 -6 27 -9 50 -7 52 6 7 1184 202 1224 203
32 1 45 -4 53 -19z m-1610 -344 c244 -106 322 -146 283 -146 -23 0 -597 257
-601 269 -6 18 -7 18 318 -123z m38 -65 c254 -110 259 -111 387 -85 l77 16 77
-32 77 -32 -1 -134 c0 -131 -1 -135 -21 -130 -11 3 -209 79 -440 170 -334 131
-421 169 -431 188 -13 23 -18 140 -7 151 8 7 2 9 282 -112z m1330 -13 l-3
-103 -315 -127 c-180 -72 -330 -127 -349 -128 l-34 0 5 112 c4 95 7 114 24
126 15 11 635 217 667 221 4 1 6 -45 5 -101z m-119 88 c-2 -2 -128 -43 -279
-91 -151 -48 -279 -91 -285 -95 -5 -5 -41 5 -80 20 -38 16 -65 29 -60 30 6 1
161 32 345 69 331 68 367 75 359 67z m152 -211 c-1 -11 -655 -274 -682 -275
-9 0 -22 7 -29 15 -11 13 -10 15 1 10 8 -2 165 56 349 129 184 74 341 133 348
133 7 -1 13 -6 13 -12z m-1208 -112 c163 -64 295 -118 293 -120 -6 -6 -756
170 -756 178 0 8 121 57 145 58 11 1 154 -51 318 -116z m1334 90 c36 -9 62
-20 60 -26 -3 -9 -374 -187 -585 -281 -42 -19 -43 -19 -145 4 -90 20 -145 40
-109 40 27 0 674 263 679 277 3 8 12 12 21 8 8 -3 44 -13 79 -22z m-1221 -194
c330 -77 607 -142 616 -145 14 -4 15 -10 7 -32 -16 -40 -23 -219 -11 -282 6
-30 9 -56 8 -57 -5 -6 -1209 317 -1221 327 -23 19 -38 118 -31 205 6 87 14
125 26 125 4 0 277 -63 606 -141z m1264 -18 l0 -140 -312 -160 -313 -160 -9
32 c-13 49 -1 243 16 270 10 14 119 71 304 159 159 75 295 137 302 137 9 1 12
-33 12 -138z m47 -148 c2 -6 -137 -84 -309 -174 -364 -191 -344 -181 -357
-165 -8 9 63 50 307 175 174 90 321 168 327 172 11 11 27 7 32 -8z"/>
<path d="M370 1330 c8 -5 20 -10 25 -10 6 0 3 5 -5 10 -8 5 -19 10 -25 10 -5
0 -3 -5 5 -10z"/>
<path d="M625 1215 c0 -46 3 -81 8 -78 4 2 7 37 7 78 0 41 -3 76 -7 78 -5 3
-8 -32 -8 -78z"/>
<path d="M420 1250 c8 -5 20 -10 25 -10 6 0 3 5 -5 10 -8 5 -19 10 -25 10 -5
0 -3 -5 5 -10z"/>
<path d="M1189 1193 c-13 -16 -12 -17 4 -4 16 13 21 21 13 21 -2 0 -10 -8 -17
-17z"/>
<path d="M1099 1173 c-13 -16 -12 -17 4 -4 9 7 17 15 17 17 0 8 -8 3 -21 -13z"/>
<path d="M979 1163 c-13 -16 -12 -17 4 -4 9 7 17 15 17 17 0 8 -8 3 -21 -13z"/>
<path d="M1009 1153 c-13 -16 -12 -17 4 -4 9 7 17 15 17 17 0 8 -8 3 -21 -13z"/>
<path d="M839 1123 c-13 -16 -12 -17 4 -4 9 7 17 15 17 17 0 8 -8 3 -21 -13z"/>
<path d="M749 1103 c-13 -16 -12 -17 4 -4 9 7 17 15 17 17 0 8 -8 3 -21 -13z"/>
<path d="M535 950 c-3 -6 1 -7 9 -4 18 7 21 14 7 14 -6 0 -13 -4 -16 -10z"/>
<path d="M580 940 c-8 -5 -10 -10 -5 -10 6 0 17 5 25 10 8 5 11 10 5 10 -5 0
-17 -5 -25 -10z"/>
<path d="M624 924 c-18 -14 -18 -15 4 -4 12 6 22 13 22 15 0 8 -5 6 -26 -11z"/>
<path d="M885 850 c-3 -6 1 -7 9 -4 18 7 21 14 7 14 -6 0 -13 -4 -16 -10z"/>
<path d="M908 829 c-21 -11 -38 -22 -38 -24 0 -3 18 4 40 15 22 11 40 23 40
25 0 7 0 7 -42 -16z"/>
<path d="M1360 910 c-8 -5 -10 -10 -5 -10 6 0 17 5 25 10 8 5 11 10 5 10 -5 0
-17 -5 -25 -10z"/>
<path d="M1310 890 c-8 -5 -10 -10 -5 -10 6 0 17 5 25 10 8 5 11 10 5 10 -5 0
-17 -5 -25 -10z"/>
<path d="M1260 870 c-8 -5 -10 -10 -5 -10 6 0 17 5 25 10 8 5 11 10 5 10 -5 0
-17 -5 -25 -10z"/>
<path d="M1035 400 c-3 -6 1 -7 9 -4 18 7 21 14 7 14 -6 0 -13 -4 -16 -10z"/>
<path d="M1054 374 c-18 -14 -18 -15 4 -4 12 6 22 13 22 15 0 8 -5 6 -26 -11z"/>
<path d="M1690 725 c-47 -24 -80 -44 -75 -44 6 0 48 20 95 44 47 24 81 44 75
44 -5 0 -48 -20 -95 -44z"/>
<path d="M1600 570 c-41 -21 -70 -39 -65 -39 6 0 44 18 85 39 41 21 71 39 65
39 -5 0 -44 -18 -85 -39z"/>
<path d="M1690 565 c-47 -24 -82 -44 -77 -44 10 -1 167 78 167 84 0 7 4 9 -90
-40z"/>
</g>
</svg>
